<?xml version="1.0" standalone="no"?>
<!DOCTYPE svg PUBLIC "-//W3C//DTD SVG 20010904//EN"
 "http://www.w3.org/TR/2001/REC-SVG-20010904/DTD/svg10.dtd">
<svg version="1.0" xmlns="http://www.w3.org/2000/svg"
 width="1280.000000pt" height="905.000000pt" viewBox="0 0 1280.000000 905.000000"
 preserveAspectRatio="xMidYMid meet">
<metadata>
Created by potrace 1.15, written by Peter Selinger 2001-2017
</metadata>
<g transform="translate(0.000000,905.000000) scale(0.100000,-0.100000)"
fill="#000000" stroke="none">
<path d="M1850 7305 l0 -585 -250 0 -250 0 0 -55 0 -55 250 0 250 0 0 -35 0
-35 -200 0 -201 0 2 -50 3 -50 198 0 198 0 0 -545 0 -545 -249 0 c-163 0 -252
-4 -256 -10 -4 -6 -4 -33 0 -60 l7 -50 249 0 249 0 0 -30 0 -30 -200 0 -200 0
0 -60 0 -60 200 0 200 0 0 -555 0 -555 -250 0 -250 0 0 -55 0 -55 250 0 250 0
0 -30 0 -30 -200 0 -200 0 0 -60 0 -60 200 0 200 0 0 -500 0 -500 -204 0
c-112 0 -224 -3 -250 -6 l-46 -7 0 -53 0 -54 250 0 250 0 0 -30 0 -30 -200 0
-200 0 0 -60 0 -60 200 0 200 0 0 -388 0 -389 -332 -6 c-182 -4 -490 -7 -685
-7 l-353 0 0 -50 0 -50 348 0 c191 0 499 -3 685 -7 l337 -6 0 -29 0 -28 -635
0 -635 0 0 -55 0 -55 635 0 635 0 0 -445 0 -445 55 0 55 0 0 -85 0 -85 50 0
50 0 0 530 0 530 485 0 485 0 0 -220 0 -220 55 0 55 0 0 -85 0 -85 50 0 50 0
0 305 0 305 545 0 545 0 0 -220 0 -220 50 0 50 0 0 -85 0 -85 55 0 55 0 0 305
0 305 595 0 595 0 0 -220 0 -220 55 0 55 0 0 -85 0 -85 50 0 50 0 0 305 0 305
585 0 585 0 0 -220 0 -220 50 0 50 0 0 -85 0 -85 55 0 55 0 0 305 0 305 560 0
560 0 0 -220 0 -220 50 0 50 0 0 -85 0 -85 55 0 55 0 0 305 0 305 590 0 590 0
0 -220 0 -220 50 0 50 0 0 -85 0 -85 55 0 55 0 0 305 0 305 655 0 655 0 0
-220 0 -220 55 0 55 0 0 -85 0 -85 50 0 50 0 0 305 0 305 380 0 380 0 0 55 0
55 -381 0 -380 0 3 33 c2 17 9 33 16 33 6 1 154 2 327 3 l315 1 0 50 0 50
-327 2 -328 3 -3 163 -2 162 -50 0 -50 0 0 91 0 90 -52 -3 -53 -3 -3 -250 -2
-250 -623 1 c-342 0 -637 2 -654 2 l-33 2 0 166 0 166 -50 -4 -50 -3 0 88 0
87 -60 0 -60 0 0 -248 0 -249 -362 -6 c-200 -3 -463 -3 -585 0 l-223 6 0 164
0 165 -50 -4 -50 -3 0 88 0 87 -60 0 -60 0 0 -248 0 -249 -187 -6 c-104 -3
-353 -3 -555 0 l-368 6 0 165 0 164 -50 -4 -50 -3 0 88 0 87 -60 0 -60 0 0
-249 0 -248 -47 -6 c-27 -3 -285 -3 -575 0 l-528 6 -2 161 -3 161 -52 -3 -53
-4 0 92 0 91 -52 -3 -53 -3 -3 -250 -2 -250 -595 0 -596 0 3 144 3 144 115 37
c63 20 169 54 235 75 133 41 686 240 713 255 20 12 220 93 307 124 193 71
1086 505 1443 703 179 99 441 254 489 290 45 33 306 207 318 212 65 25 570
444 825 684 52 50 133 122 180 161 105 88 415 390 524 511 45 50 86 89 93 89
16 -2 333 -265 329 -273 -3 -4 4 -8 15 -8 11 -1 43 -22 73 -47 29 -25 58 -46
63 -46 22 0 45 84 93 335 18 94 131 655 252 1247 121 593 217 1082 213 1087
-3 6 -30 0 -66 -16 -33 -14 -62 -24 -64 -21 -3 3 4 49 15 103 24 115 24 115 7
115 -25 0 -1395 -567 -1882 -778 -425 -184 -563 -251 -599 -291 -15 -17 -12
-21 60 -80 l76 -63 -23 -24 c-27 -29 -43 -11 151 -169 80 -65 149 -122 154
-126 9 -8 -110 -154 -319 -388 -272 -305 -862 -882 -1180 -1154 l-100 -86 -5
352 -6 352 -1 -360 -1 -360 -144 -119 c-79 -65 -157 -128 -175 -140 -17 -11
-127 -93 -245 -182 -292 -220 -844 -604 -869 -604 -5 0 -10 57 -12 128 l-3
127 0 -132 1 -131 -45 -28 c-331 -203 -731 -434 -751 -434 -5 0 -9 -4 -9 -9 0
-11 -631 -325 -879 -438 -91 -41 -206 -94 -256 -118 -49 -23 -135 -61 -190
-83 -155 -62 -309 -122 -315 -122 -3 0 -6 12 -5 28 0 26 -2 27 -57 30 l-57 3
-3 -57 -3 -56 -200 -74 c-110 -41 -245 -92 -300 -113 -55 -22 -154 -56 -220
-76 -66 -21 -146 -45 -177 -55 l-58 -19 0 364 0 363 164 7 c90 4 228 4 305 0
l141 -7 0 62 0 62 -144 -7 c-80 -4 -217 -4 -305 0 l-161 8 0 28 0 29 255 0
255 0 0 59 0 58 -88 -5 c-49 -2 -164 -1 -255 3 l-167 7 0 498 0 498 168 7 c92
4 229 5 305 2 l137 -7 0 55 0 55 -183 0 c-101 0 -239 3 -305 7 l-122 6 0 29 0
28 250 0 250 0 0 55 0 55 -250 0 -250 0 0 558 0 557 77 0 c43 0 181 1 306 3
l228 2 -3 53 -3 52 -302 3 -303 2 0 30 0 30 252 2 252 3 4 58 4 57 -255 0
-254 0 -6 537 c-3 295 -3 541 -1 545 3 4 142 8 310 8 l304 0 0 50 0 50 -310 0
-310 0 0 35 0 35 254 0 254 0 4 51 c1 28 1 53 -1 55 -2 2 -118 4 -258 4 l-253
0 0 495 0 495 -50 0 -50 0 0 90 0 90 -55 0 -55 0 0 -585z m2460 -5732 c-28 -4
-769 -9 -765 -5 4 5 72 20 122 28 43 7 375 97 538 146 l110 33 5 -100 c4 -84
3 -100 -10 -102z m-1777 -10 c-7 -2 -21 -2 -30 0 -10 3 -4 5 12 5 17 0 24 -2
18 -5z m1502 -112 l290 -1 2 -30 2 -30 -544 0 c-300 0 -545 3 -545 8 0 4 3 17
6 29 8 28 43 31 309 27 105 -2 321 -3 480 -3z m1695 -28 l0 -33 -595 0 -595 0
0 28 c0 16 2 31 4 33 2 2 270 4 595 4 l591 0 0 -32z m1364 26 c2 -2 7 -16 11
-32 l7 -27 -587 0 -587 0 6 23 c3 12 6 25 6 29 0 11 1133 18 1144 7z m1333 -2
c1 -1 4 -14 8 -30 l7 -27 -562 0 -561 0 3 28 3 27 270 5 c225 5 826 2 832 -3z
m1390 -1 c1 -1 4 -13 8 -29 l7 -27 -591 0 -591 0 0 30 0 30 173 3 c145 2 989
-3 994 -7z m1533 -23 l0 -33 -655 0 -655 0 0 29 c0 27 3 30 38 33 20 2 315 3
654 3 l618 0 0 -32z m-9200 15 c-19 -5 -39 -14 -44 -19 -6 -5 -18 -9 -27 -9
-12 0 -16 6 -12 20 5 17 13 20 62 19 54 -1 55 -1 21 -11z m880 -18 l0 -30
-222 1 -223 1 115 14 c63 8 153 20 200 28 130 21 130 21 130 -14z"/>
<path d="M6220 6753 l-95 -98 98 95 c90 88 102 100 94 100 -1 0 -45 -44 -97
-97z"/>
<path d="M6430 6738 c57 -60 106 -108 107 -108 8 0 -5 13 -104 110 l-108 105
105 -107z"/>
<path d="M5660 6203 l-95 -98 98 95 c90 88 102 100 94 100 -1 0 -45 -44 -97
-97z"/>
<path d="M7000 6178 c97 -100 110 -113 110 -105 0 1 -48 50 -107 107 l-108
105 105 -107z"/>
<path d="M1530 6083 l-95 -98 98 95 c90 88 102 100 94 100 -1 0 -45 -44 -97
-97z"/>
<path d="M2080 6107 c0 -2 15 -16 33 -33 l32 -29 -29 33 c-28 30 -36 37 -36
29z"/>
<path d="M7460 6085 c13 -14 26 -25 28 -25 3 0 -5 11 -18 25 -13 14 -26 25
-28 25 -3 0 5 -11 18 -25z"/>
<path d="M4165 5700 c55 -55 102 -100 105 -100 2 0 -40 45 -95 100 -55 55
-102 100 -105 100 -2 0 40 -45 95 -100z"/>
<path d="M3945 5678 l-100 -103 103 100 c56 55 102 101 102 102 0 8 -12 -4
-105 -99z"/>
<path d="M6975 5648 l-90 -93 93 90 c85 83 97 95 89 95 -1 0 -43 -42 -92 -92z"/>
<path d="M2585 5610 c55 -55 102 -100 105 -100 2 0 -40 45 -95 100 -55 55
-102 100 -105 100 -2 0 40 -45 95 -100z"/>
<path d="M7955 5600 c55 -55 102 -100 105 -100 2 0 -40 45 -95 100 -55 55
-102 100 -105 100 -2 0 40 -45 95 -100z"/>
<path d="M965 5528 l-100 -103 103 100 c95 93 107 105 99 105 -1 0 -47 -46
-102 -102z"/>
<path d="M4725 5150 c55 -55 102 -100 105 -100 2 0 -40 45 -95 100 -55 55
-102 100 -105 100 -2 0 40 -45 95 -100z"/>
<path d="M3380 5123 l-95 -98 98 95 c90 88 102 100 94 100 -1 0 -45 -44 -97
-97z"/>
<path d="M6813 5023 c43 -2 110 -2 150 0 40 1 5 3 -78 3 -82 0 -115 -2 -72 -3z"/>
<path d="M10685 4820 c49 -49 92 -90 95 -90 2 0 -36 41 -85 90 -49 50 -92 90
-95 90 -2 0 36 -40 85 -90z"/>
<path d="M4970 4393 l-105 -108 108 105 c99 97 112 110 104 110 -1 0 -50 -48
-107 -107z"/>
<path d="M5415 4390 c55 -55 102 -100 105 -100 2 0 -40 45 -95 100 -55 55
-102 100 -105 100 -2 0 40 -45 95 -100z"/>
<path d="M9295 2990 c0 -778 1 -1097 2 -707 2 389 2 1025 0 1415 -1 389 -2 70
-2 -708z"/>
<path d="M10745 4258 l-70 -73 73 70 c67 64 77 75 69 75 -1 0 -34 -33 -72 -72z"/>
<path d="M10995 4150 c60 -60 112 -110 115 -110 2 0 -45 50 -105 110 -60 61
-112 110 -115 110 -2 0 45 -49 105 -110z"/>
<path d="M2865 3918 l-80 -83 80 77 80 78 60 -58 60 -57 -60 63 c-33 34 -60
62 -60 62 0 0 -36 -37 -80 -82z"/>
<path d="M10215 3738 l-100 -103 103 100 c95 93 107 105 99 105 -1 0 -47 -46
-102 -102z"/>
<path d="M11560 3595 c52 -52 97 -95 100 -95 2 0 -38 43 -90 95 -52 52 -97 95
-100 95 -2 0 38 -43 90 -95z"/>
<path d="M3515 3430 c55 -55 102 -100 105 -100 2 0 -40 45 -95 100 -55 55
-102 100 -105 100 -2 0 40 -45 95 -100z"/>
<path d="M4795 3150 c0 -201 1 -283 2 -182 2 100 2 264 0 365 -1 100 -2 18 -2
-183z"/>
<path d="M2335 3398 l-90 -93 93 90 c50 49 92 91 92 92 0 8 -12 -4 -95 -89z"/>
<path d="M10193 3243 c37 -2 96 -2 130 0 34 2 4 3 -68 3 -71 0 -99 -1 -62 -3z"/>
<path d="M11403 3243 c92 -2 242 -2 335 0 92 1 16 3 -168 3 -184 0 -260 -2
-167 -3z"/>
<path d="M2544 2780 c0 -69 1 -97 3 -62 2 34 2 90 0 125 -2 34 -3 6 -3 -63z"/>
<path d="M3345 2500 c0 -223 1 -314 2 -203 2 112 2 294 0 405 -1 112 -2 21 -2
-202z"/>
<path d="M7045 2225 c0 -357 1 -502 2 -322 2 181 2 473 0 650 -1 177 -2 30 -2
-328z"/>
<path d="M2542 2500 c0 -14 2 -19 5 -12 2 6 2 18 0 25 -3 6 -5 1 -5 -13z"/>
<path d="M2544 2065 c0 -154 2 -216 3 -137 2 79 2 205 0 280 -1 75 -3 11 -3
-143z"/>
<path d="M5594 1890 c0 -173 2 -244 3 -157 2 86 2 228 0 315 -1 86 -3 15 -3
-158z"/>
<path d="M4794 1750 c0 -96 2 -136 3 -87 2 48 2 126 0 175 -1 48 -3 8 -3 -88z"/>
</g>
</svg>
